<svg width="144" height="144" viewBox="0 0 144 144" fill="none" xmlns="http://www.w3.org/2000/svg">
<path d="M56.2498 73.5355C56.2498 69.3835 56.9938 66.1315 58.4818 63.7795C59.9938 61.4275 62.4898 60.2515 65.9698 60.2515C69.4498 60.2515 71.9338 61.4275 73.4218 63.7795C74.9338 66.1315 75.6898 69.3835 75.6898 73.5355C75.6898 77.7115 74.9338 80.9875 73.4218 83.3635C71.9338 85.7395 69.4498 86.9275 65.9698 86.9275C62.4898 86.9275 59.9938 85.7395 58.4818 83.3635C56.9938 80.9875 56.2498 77.7115 56.2498 73.5355ZM70.7218 73.5355C70.7218 71.7595 70.6018 70.2715 70.3618 69.0715C70.1458 67.8475 69.6898 66.8515 68.9938 66.0835C68.3218 65.3155 67.3138 64.9315 65.9698 64.9315C64.6258 64.9315 63.6058 65.3155 62.9098 66.0835C62.2378 66.8515 61.7818 67.8475 61.5418 69.0715C61.3258 70.2715 61.2178 71.7595 61.2178 73.5355C61.2178 75.3595 61.3258 76.8955 61.5418 78.1435C61.7578 79.3675 62.2138 80.3635 62.9098 81.1315C63.6058 81.8755 64.6258 82.2475 65.9698 82.2475C67.3138 82.2475 68.3338 81.8755 69.0298 81.1315C69.7258 80.3635 70.1818 79.3675 70.3978 78.1435C70.6138 76.8955 70.7218 75.3595 70.7218 73.5355ZM78.9112 65.3995V60.7555H87.5872V86.9995H82.4032V65.3995H78.9112Z" fill="white"/>
<path d="M14.1421 71.9995L72 14.1416L129.858 71.9995L72 129.857L14.1421 71.9995Z" stroke="url(#paint0_linear_43_13)" stroke-width="20"/>
<defs>
<linearGradient id="paint0_linear_43_13" x1="-12.17" y1="71.0842" x2="167.748" y2="117.759" gradientUnits="userSpaceOnUse">
<stop stop-color="#FFC043"/>
<stop offset="1" stop-color="#DF1A30"/>
</linearGradient>
</defs>
</svg>
