<svg width="144" height="144" viewBox="0 0 144 144" fill="none" xmlns="http://www.w3.org/2000/svg">
<path d="M14.1421 71.9995L72 14.1416L129.858 71.9995L72 129.857L14.1421 71.9995Z" stroke="url(#paint0_linear_5_184)" stroke-width="20"/>
<path d="M51.9353 72.5355C51.9353 68.3835 52.6793 65.1315 54.1673 62.7795C55.6793 60.4275 58.1753 59.2515 61.6553 59.2515C65.1353 59.2515 67.6193 60.4275 69.1073 62.7795C70.6193 65.1315 71.3753 68.3835 71.3753 72.5355C71.3753 76.7115 70.6193 79.9875 69.1073 82.3635C67.6193 84.7395 65.1353 85.9275 61.6553 85.9275C58.1753 85.9275 55.6793 84.7395 54.1673 82.3635C52.6793 79.9875 51.9353 76.7115 51.9353 72.5355ZM66.4073 72.5355C66.4073 70.7595 66.2873 69.2715 66.0473 68.0715C65.8313 66.8475 65.3753 65.8515 64.6793 65.0835C64.0073 64.3155 62.9993 63.9315 61.6553 63.9315C60.3113 63.9315 59.2913 64.3155 58.5953 65.0835C57.9233 65.8515 57.4673 66.8475 57.2273 68.0715C57.0113 69.2715 56.9033 70.7595 56.9033 72.5355C56.9033 74.3595 57.0113 75.8955 57.2273 77.1435C57.4433 78.3675 57.8993 79.3635 58.5953 80.1315C59.2913 80.8755 60.3113 81.2475 61.6553 81.2475C62.9993 81.2475 64.0193 80.8755 64.7153 80.1315C65.4113 79.3635 65.8673 78.3675 66.0833 77.1435C66.2993 75.8955 66.4073 74.3595 66.4073 72.5355ZM76.7928 80.3115C79.0968 78.3915 80.9328 76.7955 82.3008 75.5235C83.6688 74.2275 84.8088 72.8835 85.7208 71.4915C86.6328 70.0995 87.0888 68.7315 87.0888 67.3875C87.0888 66.1635 86.8008 65.2035 86.2248 64.5075C85.6488 63.8115 84.7608 63.4635 83.5608 63.4635C82.3608 63.4635 81.4368 63.8715 80.7888 64.6875C80.1408 65.4795 79.8048 66.5715 79.7808 67.9635H74.8848C74.9808 65.0835 75.8328 62.8995 77.4408 61.4115C79.0728 59.9235 81.1368 59.1795 83.6328 59.1795C86.3688 59.1795 88.4688 59.9115 89.9328 61.3755C91.3968 62.8155 92.1288 64.7235 92.1288 67.0995C92.1288 68.9715 91.6248 70.7595 90.6168 72.4635C89.6088 74.1675 88.4568 75.6555 87.1608 76.9275C85.8648 78.1755 84.1728 79.6875 82.0848 81.4635H92.7048V85.6395H74.9208V81.8955L76.7928 80.3115Z" fill="white"/>
<defs>
<linearGradient id="paint0_linear_5_184" x1="4.59865" y1="48.0477" x2="142.597" y2="110.361" gradientUnits="userSpaceOnUse">
<stop stop-color="#68D795"/>
<stop offset="1" stop-color="#0083CC"/>
</linearGradient>
</defs>
</svg>
