<svg width="144" height="144" viewBox="0 0 144 144" fill="none" xmlns="http://www.w3.org/2000/svg">
<path d="M14.1421 71.9995L72 14.1416L129.858 71.9995L72 129.857L14.1421 71.9995Z" stroke="url(#paint0_linear_5_187)" stroke-width="20"/>
<path d="M51.9959 73.5355C51.9959 69.3835 52.7399 66.1315 54.2279 63.7795C55.7399 61.4275 58.2359 60.2515 61.7159 60.2515C65.1959 60.2515 67.6799 61.4275 69.1679 63.7795C70.6799 66.1315 71.4359 69.3835 71.4359 73.5355C71.4359 77.7115 70.6799 80.9875 69.1679 83.3635C67.6799 85.7395 65.1959 86.9275 61.7159 86.9275C58.2359 86.9275 55.7399 85.7395 54.2279 83.3635C52.7399 80.9875 51.9959 77.7115 51.9959 73.5355ZM66.4679 73.5355C66.4679 71.7595 66.3479 70.2715 66.1079 69.0715C65.8919 67.8475 65.4359 66.8515 64.7399 66.0835C64.0679 65.3155 63.0599 64.9315 61.7159 64.9315C60.3719 64.9315 59.3519 65.3155 58.6559 66.0835C57.9839 66.8515 57.5279 67.8475 57.2879 69.0715C57.0719 70.2715 56.9639 71.7595 56.9639 73.5355C56.9639 75.3595 57.0719 76.8955 57.2879 78.1435C57.5039 79.3675 57.9599 80.3635 58.6559 81.1315C59.3519 81.8755 60.3719 82.2475 61.7159 82.2475C63.0599 82.2475 64.0799 81.8755 64.7759 81.1315C65.4719 80.3635 65.9279 79.3675 66.1439 78.1435C66.3599 76.8955 66.4679 75.3595 66.4679 73.5355ZM75.3413 67.6675C75.4613 65.2675 76.3013 63.4195 77.8613 62.1235C79.4453 60.8035 81.5213 60.1435 84.0893 60.1435C85.8413 60.1435 87.3413 60.4555 88.5893 61.0795C89.8373 61.6795 90.7733 62.5075 91.3973 63.5635C92.0453 64.5955 92.3693 65.7715 92.3693 67.0915C92.3693 68.6035 91.9733 69.8875 91.1813 70.9435C90.4133 71.9755 89.4893 72.6715 88.4093 73.0315V73.1755C89.8013 73.6075 90.8813 74.3755 91.6493 75.4795C92.4413 76.5835 92.8373 77.9995 92.8373 79.7275C92.8373 81.1675 92.5013 82.4515 91.8293 83.5795C91.1813 84.7075 90.2093 85.5955 88.9133 86.2435C87.6413 86.8675 86.1053 87.1795 84.3053 87.1795C81.5933 87.1795 79.3853 86.4955 77.6813 85.1275C75.9773 83.7595 75.0773 81.7435 74.9813 79.0795H79.8773C79.9253 80.2555 80.3213 81.2035 81.0653 81.9235C81.8333 82.6195 82.8773 82.9675 84.1973 82.9675C85.4213 82.9675 86.3573 82.6315 87.0053 81.9595C87.6773 81.2635 88.0133 80.3755 88.0133 79.2955C88.0133 77.8555 87.5573 76.8235 86.6453 76.1995C85.7333 75.5755 84.3173 75.2635 82.3973 75.2635H81.3533V71.1235H82.3973C85.8053 71.1235 87.5093 69.9835 87.5093 67.7035C87.5093 66.6715 87.1973 65.8675 86.5733 65.2915C85.9733 64.7155 85.0973 64.4275 83.9453 64.4275C82.8173 64.4275 81.9413 64.7395 81.3173 65.3635C80.7173 65.9635 80.3693 66.7315 80.2733 67.6675H75.3413Z" fill="white"/>
<defs>
<linearGradient id="paint0_linear_5_187" x1="-8.77406" y1="57.5295" x2="161.094" y2="102.187" gradientUnits="userSpaceOnUse">
<stop stop-color="#E11660"/>
<stop offset="1" stop-color="#52116A"/>
</linearGradient>
</defs>
</svg>
