<svg width="144" height="144" viewBox="0 0 144 144" fill="none" xmlns="http://www.w3.org/2000/svg">
<path d="M14.1421 71.9995L72 14.1416L129.858 71.9995L72 129.857L14.1421 71.9995Z" stroke="url(#paint0_linear_43_14)" stroke-width="20"/>
<path d="M50.3709 73.5355C50.3709 69.3835 51.1149 66.1315 52.6029 63.7795C54.1149 61.4275 56.6109 60.2515 60.0909 60.2515C63.5709 60.2515 66.0549 61.4275 67.5429 63.7795C69.0549 66.1315 69.8109 69.3835 69.8109 73.5355C69.8109 77.7115 69.0549 80.9875 67.5429 83.3635C66.0549 85.7395 63.5709 86.9275 60.0909 86.9275C56.6109 86.9275 54.1149 85.7395 52.6029 83.3635C51.1149 80.9875 50.3709 77.7115 50.3709 73.5355ZM64.8429 73.5355C64.8429 71.7595 64.7229 70.2715 64.4829 69.0715C64.2669 67.8475 63.8109 66.8515 63.1149 66.0835C62.4429 65.3155 61.4349 64.9315 60.0909 64.9315C58.7469 64.9315 57.7269 65.3155 57.0309 66.0835C56.3589 66.8515 55.9029 67.8475 55.6629 69.0715C55.4469 70.2715 55.3389 71.7595 55.3389 73.5355C55.3389 75.3595 55.4469 76.8955 55.6629 78.1435C55.8789 79.3675 56.3349 80.3635 57.0309 81.1315C57.7269 81.8755 58.7469 82.2475 60.0909 82.2475C61.4349 82.2475 62.4549 81.8755 63.1509 81.1315C63.8469 80.3635 64.3029 79.3675 64.5189 78.1435C64.7349 76.8955 64.8429 75.3595 64.8429 73.5355ZM73.4283 81.8875V77.9275L85.2003 61.0795H91.0683V77.4955H94.2363V81.8875H91.0683V86.9995H86.0283V81.8875H73.4283ZM86.3523 66.4795L78.9723 77.4955H86.3523V66.4795Z" fill="white"/>
<defs>
<linearGradient id="paint0_linear_43_14" x1="-12.17" y1="71.0842" x2="167.748" y2="117.759" gradientUnits="userSpaceOnUse">
<stop stop-color="#FFC043"/>
<stop offset="1" stop-color="#DF1A30"/>
</linearGradient>
</defs>
</svg>
