<svg width="90" height="90" viewBox="0 0 90 90" fill="none" xmlns="http://www.w3.org/2000/svg">
<path d="M48.2178 8.4005C56.3572 16.5333 58.5277 27.9193 55.0006 37.9498L87.5582 70.4812C90.8139 73.7343 90.8139 78.8851 87.5582 81.8672L81.8606 87.5602C78.6048 90.8133 73.4499 90.8133 70.4654 87.5602L37.9079 55.0288C27.8693 58.553 16.2028 56.3843 8.33474 48.2514C-0.347281 39.5764 -2.24647 26.5638 2.63716 15.7201L20.5438 33.6123L33.8382 20.3287L15.9315 2.43641C26.2414 -2.1722 39.2644 -0.274535 48.2178 8.4005Z" fill="url(#paint0_linear_5_160)"/>
<path d="M55.0006 37.9498L87.5582 70.4812C90.8139 73.7343 90.8139 78.8851 87.5582 81.8672L81.8606 87.5601C78.6048 90.8133 73.4499 90.8133 70.4654 87.5601L37.9079 55.0288C37.9079 55.0288 31.9999 32.0007 55.0006 37.9498Z" fill="url(#paint1_linear_5_160)"/>
<g style="mix-blend-mode:overlay" opacity="0.35">
<path fill-rule="evenodd" clip-rule="evenodd" d="M55.0006 37.9498C58.5277 27.9193 56.3572 16.5333 48.2178 8.4005C39.2644 -0.274535 26.2414 -2.1722 15.9315 2.43641L33.8382 20.3287L20.5438 33.6123L2.63716 15.7201C-2.24647 26.5638 -0.34728 39.5764 8.33474 48.2514C8.66492 48.5927 9.00178 48.9235 9.34494 49.2438C27.8154 52.0823 40.0001 40.3535 40.0001 40.3535L85.4871 83.9366L87.5582 81.8672C90.8139 78.8851 90.8139 73.7343 87.5582 70.4812L55.0006 37.9498Z" fill="url(#paint2_linear_5_160)"/>
</g>
<defs>
<linearGradient id="paint0_linear_5_160" x1="-7.60627" y1="44.428" x2="104.843" y2="73.5996" gradientUnits="userSpaceOnUse">
<stop stop-color="#FFC043"/>
<stop offset="1" stop-color="#DF1A30"/>
</linearGradient>
<linearGradient id="paint1_linear_5_160" x1="34.0119" y1="58.155" x2="96.3038" y2="74.4512" gradientUnits="userSpaceOnUse">
<stop stop-color="#E11660"/>
<stop offset="1" stop-color="#52116A"/>
</linearGradient>
<linearGradient id="paint2_linear_5_160" x1="2.87415" y1="28.007" x2="86.9908" y2="68.7336" gradientUnits="userSpaceOnUse">
<stop stop-color="#68D795"/>
<stop offset="1" stop-color="#0083CC"/>
</linearGradient>
</defs>
</svg>
