<svg width="81" height="78" viewBox="0 0 81 78" fill="none" xmlns="http://www.w3.org/2000/svg">
<path d="M75.4126 46.5888C78.4984 46.5888 81 49.0904 81 52.1762V59.0009C81 69.4943 72.4934 78.0009 62 78.0009H19C8.50659 78.0009 0 69.4943 0 59.0009V52.306C0 49.1485 2.55967 46.5888 5.71718 46.5888C8.8747 46.5888 11.4344 49.1485 11.4344 52.306V56.457C11.4344 61.9071 15.8525 66.3252 21.3026 66.3252H59.9569C65.407 66.3252 69.8251 61.9071 69.8251 56.457V52.1762C69.8251 49.0904 72.3267 46.5888 75.4126 46.5888Z" fill="url(#paint0_linear_5_152)"/>
<path d="M16.5146 54.2049C16.5146 50.778 19.2927 48 22.7195 48H59.0671C62.4939 48 65.2719 50.778 65.2719 54.2049C65.2719 57.6317 62.4939 60.4097 59.0671 60.4097H22.7195C19.2926 60.4097 16.5146 57.6317 16.5146 54.2049Z" fill="url(#paint1_linear_5_152)"/>
<path d="M23.1195 37.9763C19.8824 37.3281 17.7521 34.2176 18.3179 30.9651C18.9124 27.5468 22.2395 25.3163 25.6274 26.0646L62.5062 34.2109C65.4042 34.851 67.3295 37.6035 66.9369 40.5453C66.5003 43.8176 63.3892 46.0398 60.1522 45.3916L23.1195 37.9763Z" fill="url(#paint2_linear_5_152)"/>
<path d="M28.5341 13.8948C25.3822 12.4374 24.0296 8.68504 25.5267 5.55193C26.9973 2.4744 30.6687 1.15095 33.7646 2.58243L67.0145 17.9565C70.1663 19.4138 71.5189 23.1662 70.0218 26.2993C68.5513 29.3769 64.8798 30.7003 61.7839 29.2688L28.5341 13.8948Z" fill="url(#paint3_linear_5_152)"/>
<g style="mix-blend-mode:overlay" opacity="0.5">
<path fill-rule="evenodd" clip-rule="evenodd" d="M25.1941 6.37323C35.7259 16.0088 64.028 25.0607 70.0451 20.9286C70.823 22.5504 70.8866 24.4901 70.0504 26.2401C68.5686 29.3412 64.8209 30.6737 61.6736 29.2185L28.5241 13.8908C25.6218 12.5488 24.2419 9.30464 25.1941 6.37323ZM18.2995 31.0731C17.7829 34.2849 19.9231 37.3365 23.1636 37.9854L60.0477 45.3709C63.3366 46.0295 66.5024 43.8013 66.9403 40.5197C67.0581 39.6372 66.9643 38.7719 66.696 37.9759C61.0174 43.0439 30.0618 38.9108 18.2995 31.0731ZM17.6949 57.8237C18.8369 59.3897 20.7006 60.4095 22.8058 60.4095H58.9806C62.4551 60.4095 65.2718 57.6315 65.2718 54.2047C65.2718 53.6096 65.1869 53.0342 65.0284 52.4894C60.136 61.147 28.4218 58.8614 17.6949 57.8237ZM47.8049 47.9998C40.9397 48.531 33.4968 49.0673 28.2395 47.9998H47.8049ZM3.79056 73.0729C6.52693 76.0968 10.5089 78.0006 14.9417 78.0006H66.0582C74.2491 78.0006 80.9006 71.5004 80.9989 63.4451C66.2222 72.7362 20.8202 73.23 3.79056 73.0729Z" fill="url(#paint4_linear_5_152)"/>
</g>
<defs>
<linearGradient id="paint0_linear_5_152" x1="2.58674" y1="57.07" x2="42.2559" y2="103.26" gradientUnits="userSpaceOnUse">
<stop stop-color="#68D795"/>
<stop offset="1" stop-color="#0083CC"/>
</linearGradient>
<linearGradient id="paint1_linear_5_152" x1="12.394" y1="54.126" x2="44.2834" y2="86.6295" gradientUnits="userSpaceOnUse">
<stop stop-color="#FFC043"/>
<stop offset="1" stop-color="#DF1A30"/>
</linearGradient>
<linearGradient id="paint2_linear_5_152" x1="13.0474" y1="35.5007" x2="62.5605" y2="65.0233" gradientUnits="userSpaceOnUse">
<stop stop-color="#FFC043"/>
<stop offset="1" stop-color="#DF1A30"/>
</linearGradient>
<linearGradient id="paint3_linear_5_152" x1="18.5855" y1="15.7232" x2="75.725" y2="38.9632" gradientUnits="userSpaceOnUse">
<stop stop-color="#FFC043"/>
<stop offset="1" stop-color="#DF1A30"/>
</linearGradient>
<linearGradient id="paint4_linear_5_152" x1="4.49131" y1="11.6227" x2="18.5003" y2="81.2924" gradientUnits="userSpaceOnUse">
<stop offset="0.0404877" stop-color="#0AEDAA"/>
<stop offset="0.229167" stop-color="#0DA4D1"/>
<stop offset="0.46875" stop-color="#5B6FCE"/>
<stop offset="0.764606" stop-color="#E24AB0"/>
<stop offset="1" stop-color="#FB7945"/>
</linearGradient>
</defs>
</svg>
