<svg width="75" height="75" viewBox="0 0 75 75" fill="none" xmlns="http://www.w3.org/2000/svg">
<path d="M22.5207 66.9968C22.5207 62.5766 26.1039 58.9934 30.5241 58.9934H66.997C71.4171 58.9934 75.0004 62.5766 75.0004 66.9968C75.0004 71.417 71.4171 75.0003 66.997 75.0003H30.5241C26.1039 75.0003 22.5207 71.417 22.5207 66.9968Z" fill="url(#paint0_linear_5_93)"/>
<path d="M0.113281 66.9884C0.113281 62.5636 3.77542 58.9766 8.20026 58.9766C12.6251 58.9766 16.2872 62.5636 16.2872 66.9884C16.2872 71.4133 12.6251 75.0003 8.20026 75.0003C3.77542 75.0003 0.113281 71.4133 0.113281 66.9884Z" fill="url(#paint1_linear_5_93)"/>
<path d="M22.5207 37.2381C22.5207 32.8179 26.1039 29.2347 30.5241 29.2347H66.9968C71.417 29.2347 75.0002 32.8179 75.0002 37.2381C75.0002 41.6583 71.417 45.2416 66.9968 45.2416H30.5241C26.1039 45.2416 22.5207 41.6583 22.5207 37.2381Z" fill="url(#paint2_linear_5_93)"/>
<path d="M0.113281 37.0222C0.113281 32.6947 3.62142 29.1865 7.94892 29.1865C12.2764 29.1865 15.7846 32.6947 15.7846 37.0222V37.3747C15.7846 41.7022 12.2764 45.2103 7.94892 45.2103C3.62142 45.2103 0.113281 41.7022 0.113281 37.3747V37.0222Z" fill="url(#paint3_linear_5_93)"/>
<path d="M22.2582 8.08227C22.2582 3.66207 25.8415 0.0788027 30.2617 0.0788103L66.9964 0.078868C71.4166 0.0788756 74.9999 3.66214 74.9999 8.08232C74.9999 12.5025 71.4166 16.0858 66.9964 16.0858L30.2617 16.0857C25.8415 16.0857 22.2582 12.5024 22.2582 8.08227Z" fill="url(#paint4_linear_5_93)"/>
<path d="M0 8.01188C0 3.58703 3.58707 -2.3169e-05 8.01193 1.12238e-10L8.27495 1.37734e-06C12.6998 2.45463e-05 16.2868 3.58706 16.2868 8.01189C16.2868 12.4367 12.6997 16.0238 8.27487 16.0238L8.01184 16.0238C3.58702 16.0237 0 12.4367 0 8.01188Z" fill="url(#paint5_linear_5_93)"/>
<g style="mix-blend-mode:overlay" opacity="0.5">
<path fill-rule="evenodd" clip-rule="evenodd" d="M22.2574 8.08268C22.2574 3.66249 25.8407 0.0792165 30.2609 0.0792236L66.9956 0.079283C71.4158 0.0792901 74.999 3.66256 74.999 8.08274C74.999 8.73117 74.9219 9.36158 74.7764 9.96532C60.4163 3.84639 28.0112 2.41315 25.6826 14.6482C23.6119 13.2016 22.2574 10.8003 22.2574 8.08268ZM26.3633 30.3993C27.5754 29.6604 28.9995 29.2348 30.5229 29.2348H66.9956C71.4157 29.2348 74.999 32.818 74.999 37.2382C74.999 40.2969 73.2832 42.9548 70.7617 44.302C69.5549 36.6386 59.1761 37.0481 48.7435 37.4597C38.2071 37.8755 27.616 38.2934 26.3633 30.3993ZM22.7355 65.1422C33.9878 70.1469 66.0184 73.4897 70.3832 59.7435C69.3545 59.2623 68.2065 58.9935 66.9958 58.9935H30.5229C26.7412 58.9935 23.5721 61.6164 22.7355 65.1422Z" fill="url(#paint6_linear_5_93)"/>
</g>
<defs>
<linearGradient id="paint0_linear_5_93" x1="-4.44967" y1="65.3783" x2="33.1842" y2="111.617" gradientUnits="userSpaceOnUse">
<stop stop-color="#E11660"/>
<stop offset="1" stop-color="#52116A"/>
</linearGradient>
<linearGradient id="paint1_linear_5_93" x1="-4.44967" y1="65.3783" x2="33.1842" y2="111.617" gradientUnits="userSpaceOnUse">
<stop stop-color="#E11660"/>
<stop offset="1" stop-color="#52116A"/>
</linearGradient>
<linearGradient id="paint2_linear_5_93" x1="2.5048" y1="34.5436" x2="18.3984" y2="68.0187" gradientUnits="userSpaceOnUse">
<stop stop-color="#68D795"/>
<stop offset="1" stop-color="#0083CC"/>
</linearGradient>
<linearGradient id="paint3_linear_5_93" x1="2.5048" y1="34.5436" x2="18.3984" y2="68.0187" gradientUnits="userSpaceOnUse">
<stop stop-color="#68D795"/>
<stop offset="1" stop-color="#0083CC"/>
</linearGradient>
<linearGradient id="paint4_linear_5_93" x1="-6.33855" y1="7.94065" x2="34.2678" y2="57.056" gradientUnits="userSpaceOnUse">
<stop stop-color="#FFC043"/>
<stop offset="1" stop-color="#DF1A30"/>
</linearGradient>
<linearGradient id="paint5_linear_5_93" x1="-6.33855" y1="7.94065" x2="34.2678" y2="57.056" gradientUnits="userSpaceOnUse">
<stop stop-color="#FFC043"/>
<stop offset="1" stop-color="#DF1A30"/>
</linearGradient>
<linearGradient id="paint6_linear_5_93" x1="22.7361" y1="5.1667" x2="41.268" y2="70.1294" gradientUnits="userSpaceOnUse">
<stop offset="0.0404877" stop-color="#0AEDAA"/>
<stop offset="0.229167" stop-color="#0DA4D1"/>
<stop offset="0.46875" stop-color="#5B6FCE"/>
<stop offset="0.764606" stop-color="#E24AB0"/>
<stop offset="1" stop-color="#FB7945"/>
</linearGradient>
</defs>
</svg>
