<svg
          width="282"
          height="79"
          viewBox="0 0 282 79"
          fill="none"
          xmlns="http://www.w3.org/2000/svg"
        >
          <path
            d="M136.849 62.2922H107.112L122.13 35.6829H107.112V26.6017H136.849L121.831 53.211H136.849V62.2922Z"
            fill="white"
          />
          <path
            d="M155.563 53.5448C155.918 53.6561 156.273 53.734 156.628 53.7786C156.983 53.8008 157.339 53.8119 157.694 53.8119C158.582 53.8119 159.437 53.6895 160.258 53.4447C161.079 53.1998 161.845 52.8549 162.556 52.4097C163.288 51.9423 163.932 51.3858 164.487 50.7404C165.064 50.0726 178.51 32.9682 178.865 32.1669L185.525 38.8776C184.682 40.0796 170.725 57.529 169.615 58.4861C168.527 59.4432 167.34 60.2556 166.052 60.9233C164.787 61.5911 163.444 62.0919 162.023 62.4258C160.624 62.7819 159.181 62.9599 157.694 62.9599C155.185 62.9599 152.821 62.4925 150.601 61.5577C148.403 60.6229 146.472 59.3208 144.807 57.6514C143.164 55.9821 141.866 54.0011 140.911 51.7086C139.956 49.3937 139.479 46.8563 139.479 44.0964C139.479 41.2696 139.956 38.6877 140.911 36.3506C141.866 34.0135 143.164 32.0215 144.807 30.3744C146.472 28.7273 148.403 27.4475 150.601 26.5349C152.821 25.6223 155.185 25.166 157.694 25.166C159.181 25.166 160.635 25.3441 162.056 25.7002C163.477 26.0563 164.82 26.5683 166.085 27.236C167.373 27.9037 168.572 28.7273 169.682 29.7066C170.792 30.6637 171.768 31.7432 172.612 32.9452L155.563 53.5448ZM160.225 34.748C159.803 34.5922 159.381 34.4921 158.959 34.4476C158.56 34.403 158.138 34.3808 157.694 34.3808C156.451 34.3808 155.274 34.6145 154.164 35.0819C153.076 35.5271 152.122 36.1725 151.3 37.0183C150.501 37.8642 149.869 38.888 149.402 40.0899C148.936 41.2696 148.703 42.6051 148.703 44.0964C148.703 44.4302 148.714 44.8086 148.736 45.2315C148.781 45.6544 148.836 46.0884 148.903 46.5336C148.992 46.9565 149.092 47.3683 149.203 47.7689C149.314 48.1696 149.458 48.5257 149.635 48.8373L160.225 34.748Z"
            fill="white"
          />
          <path
            d="M191.126 53.5448C191.482 53.6561 191.837 53.734 192.192 53.7786C192.547 53.8008 192.902 53.8119 193.257 53.8119C194.145 53.8119 195 53.6895 195.822 53.4447C196.643 53.1998 197.409 52.8549 198.119 52.4097C198.852 51.9423 199.496 51.3858 200.051 50.7404C200.628 50.0726 201.094 49.3381 201.449 48.5368L208.109 55.2476C207.265 56.4495 206.289 57.529 205.179 58.4861C204.091 59.4432 202.903 60.2556 201.616 60.9233C200.35 61.5911 199.007 62.0919 197.586 62.4258C196.188 62.7819 194.745 62.9599 193.257 62.9599C190.749 62.9599 188.385 62.4925 186.165 61.5577C183.967 60.6229 182.036 59.3208 180.371 57.6514C178.728 55.9821 177.429 54.0011 176.475 51.7086C175.52 49.3937 175.043 46.8563 175.043 44.0964C175.043 41.2696 175.52 38.6877 176.475 36.3506C177.429 34.0135 178.728 32.0215 180.371 30.3744C182.036 28.7273 183.967 27.4475 186.165 26.5349C188.385 25.6223 190.749 25.166 193.257 25.166C194.745 25.166 196.199 25.3441 197.62 25.7002C199.04 26.0563 200.384 26.5683 201.649 27.236C202.936 27.9037 204.135 28.7273 205.245 29.7066C206.355 30.6637 207.332 31.7432 208.176 32.9452L191.126 53.5448ZM195.788 34.748C195.366 34.5922 194.945 34.4921 194.523 34.4476C194.123 34.403 193.701 34.3808 193.257 34.3808C192.014 34.3808 190.838 34.6145 189.728 35.0819C188.64 35.5271 187.685 36.1725 186.864 37.0183C186.065 37.8642 185.432 38.888 184.966 40.0899C184.5 41.2696 184.267 42.6051 184.267 44.0964C184.267 44.4302 184.278 44.8086 184.3 45.2315C184.344 45.6544 184.4 46.0884 184.466 46.5336C184.555 46.9565 184.655 47.3683 184.766 47.7689C184.877 48.1696 185.021 48.5257 185.199 48.8373L195.788 34.748Z"
            fill="white"
          />
          <path
            d="M222.428 62.2922L208.842 26.5349H219.198L226.99 48.8373L234.748 26.5349H245.138L231.552 62.2922H222.428Z"
            fill="white"
          />
          <path
            d="M282 44.0964C282 46.7673 281.523 49.2602 280.568 51.575C279.614 53.8676 278.315 55.8597 276.672 57.5513C275.029 59.2206 273.098 60.545 270.878 61.5243C268.68 62.4814 266.316 62.9599 263.785 62.9599C261.277 62.9599 258.913 62.4814 256.693 61.5243C254.495 60.545 252.563 59.2206 250.899 57.5513C249.256 55.8597 247.957 53.8676 247.003 51.575C246.048 49.2602 245.571 46.7673 245.571 44.0964C245.571 41.3809 246.048 38.8658 247.003 36.5509C247.957 34.2361 249.256 32.244 250.899 30.5747C252.563 28.8831 254.495 27.5587 256.693 26.6017C258.913 25.6446 261.277 25.166 263.785 25.166C266.316 25.166 268.68 25.6223 270.878 26.5349C273.098 27.4252 275.029 28.705 276.672 30.3744C278.315 32.0215 279.614 34.0135 280.568 36.3506C281.523 38.6654 282 41.2474 282 44.0964ZM272.843 44.0964C272.843 42.6273 272.599 41.303 272.11 40.1233C271.644 38.9214 271 37.8975 270.179 37.0517C269.357 36.1837 268.392 35.5271 267.282 35.0819C266.194 34.6145 265.029 34.3808 263.785 34.3808C262.542 34.3808 261.366 34.6145 260.256 35.0819C259.168 35.5271 258.213 36.1837 257.392 37.0517C256.593 37.8975 255.96 38.9214 255.494 40.1233C255.028 41.303 254.795 42.6273 254.795 44.0964C254.795 45.4764 255.028 46.7562 255.494 47.9359C255.96 49.1155 256.593 50.1394 257.392 51.0074C258.213 51.8755 259.168 52.5655 260.256 53.0774C261.366 53.5671 262.542 53.8119 263.785 53.8119C265.029 53.8119 266.194 53.5782 267.282 53.1108C268.392 52.6434 269.357 51.9868 270.179 51.141C271 50.2952 271.644 49.2713 272.11 48.0694C272.599 46.8675 272.843 45.5431 272.843 44.0964Z"
            fill="white"
          />
          <path
            d="M24.1338 18.1016L48.2675 42.2353L24.1338 66.369L9.13163e-05 42.2353L9.05023 42.2353L24.1338 57.3188L39.2174 42.2353L24.1338 27.1517L9.05023 42.2353L9.13163e-05 42.2353L24.1338 18.1016Z"
            fill="url(#paint0_linear_35_3)"
          />
          <path
            d="M54.2998 48.2676L69.3834 63.3511L54.2998 78.4347L39.2162 63.3511L48.2664 63.3511L54.2998 69.3846L60.3332 63.3511L54.2998 57.3177L48.2664 63.3511L39.2162 63.3511L54.2998 48.2676Z"
            fill="url(#paint1_linear_35_3)"
          />
          <path
            d="M54.2998 0L72.4001 18.1003L54.2998 36.2006L36.1995 18.1003H45.2497L54.2998 27.1504L63.3499 18.1003L54.2998 9.05014L45.2497 18.1003H36.1995L54.2998 0Z"
            fill="url(#paint2_linear_35_3)"
          />
          <defs>
            <linearGradient
              id="paint0_linear_35_3"
              x1="16.8519"
              y1="26.9249"
              x2="29.5364"
              y2="60.4963"
              gradientUnits="userSpaceOnUse"
            >
              <stop stop-color="#68D795" />
              <stop offset="1" stop-color="#0083CC" />
            </linearGradient>
            <linearGradient
              id="paint1_linear_35_3"
              x1="47.3547"
              y1="53.3746"
              x2="60.47"
              y2="75.8455"
              gradientUnits="userSpaceOnUse"
            >
              <stop stop-color="#E11660" />
              <stop offset="1" stop-color="#52116A" />
            </linearGradient>
            <linearGradient
              id="paint2_linear_35_3"
              x1="43.835"
              y1="7.40536"
              x2="60.5833"
              y2="35.8873"
              gradientUnits="userSpaceOnUse"
            >
              <stop stop-color="#FFC043" />
              <stop offset="1" stop-color="#DF1A30" />
            </linearGradient>
          </defs>
        </svg>