<svg width="72" height="100" viewBox="0 0 72 100" fill="none" xmlns="http://www.w3.org/2000/svg">
<path d="M27.3156 43.7509L35.8718 31.7722L42.0213 38.1779L55.251 26.9048L40.0368 5.78233C37.9897 2.94035 33.7585 2.94361 31.7158 5.78874L4.31361 43.9561C1.73817 47.5433 1.74999 52.3768 4.34295 55.9514L31.7153 93.6862C33.7639 96.5103 37.9742 96.5062 40.0173 93.6783L53.4579 75.0746L44.2337 57.3949L35.8718 67.644L27.3156 55.6653C24.7702 52.1017 24.7702 47.3145 27.3156 43.7509Z" fill="url(#paint0_linear_5_90)"/>
<path d="M67.6169 43.6693L51.8278 21.9178C49.8229 19.1558 45.729 19.0886 43.6345 21.7833L35.8715 31.7711L44.542 43.6718C47.1626 47.2686 47.1626 52.1455 44.542 55.7423L35.8715 67.6429L43.1791 77.7933C45.2158 80.6223 49.4217 80.6362 51.477 77.8206L67.6008 55.7329C70.2228 52.1411 70.2293 47.2682 67.6169 43.6693Z" fill="url(#paint1_linear_5_90)"/>
<defs>
<linearGradient id="paint0_linear_5_90" x1="59.9205" y1="49.0762" x2="-12.2575" y2="59.4824" gradientUnits="userSpaceOnUse">
<stop stop-color="#FFC043"/>
<stop offset="1" stop-color="#DF1A30"/>
</linearGradient>
<linearGradient id="paint1_linear_5_90" x1="74.2009" y1="43.2179" x2="29.5315" y2="49.5377" gradientUnits="userSpaceOnUse">
<stop stop-color="#E11660"/>
<stop offset="1" stop-color="#52116A"/>
</linearGradient>
</defs>
</svg>
