<svg width="73" height="79" viewBox="0 0 73 79" fill="none" xmlns="http://www.w3.org/2000/svg">
<path d="M24.1338 18.1016L48.2675 42.2353L24.1338 66.369L9.09791e-05 42.2353H9.05023L24.1338 57.3188L39.2174 42.2353L24.1338 27.1517L9.05023 42.2353H9.09791e-05L24.1338 18.1016Z" fill="url(#paint0_linear_73_242)"/>
<path d="M54.2998 48.2676L69.3834 63.3511L54.2998 78.4347L39.2162 63.3511H48.2664L54.2998 69.3846L60.3332 63.3511L54.2998 57.3177L48.2664 63.3511H39.2162L54.2998 48.2676Z" fill="url(#paint1_linear_73_242)"/>
<path d="M54.2998 0L72.4001 18.1003L54.2998 36.2006L36.1995 18.1003H45.2497L54.2998 27.1504L63.3499 18.1003L54.2998 9.05014L45.2497 18.1003H36.1995L54.2998 0Z" fill="url(#paint2_linear_73_242)"/>
<defs>
<linearGradient id="paint0_linear_73_242" x1="16.8519" y1="26.9249" x2="29.5364" y2="60.4963" gradientUnits="userSpaceOnUse">
<stop stop-color="#68D795"/>
<stop offset="1" stop-color="#0083CC"/>
</linearGradient>
<linearGradient id="paint1_linear_73_242" x1="47.3547" y1="53.3746" x2="60.47" y2="75.8455" gradientUnits="userSpaceOnUse">
<stop stop-color="#E11660"/>
<stop offset="1" stop-color="#52116A"/>
</linearGradient>
<linearGradient id="paint2_linear_73_242" x1="43.835" y1="7.40536" x2="60.5833" y2="35.8873" gradientUnits="userSpaceOnUse">
<stop stop-color="#FFC043"/>
<stop offset="1" stop-color="#DF1A30"/>
</linearGradient>
</defs>
</svg>
