<svg width="708" height="153" viewBox="0 0 708 153" fill="none" xmlns="http://www.w3.org/2000/svg">
<path d="M120.528 150.094H0.30957L61.0245 42.5177H0.30957V5.80401H120.528L59.8129 113.381H120.528V150.094Z" fill="white"/>
<path d="M196.186 114.73C197.622 115.18 199.058 115.495 200.494 115.675C201.93 115.765 203.366 115.81 204.802 115.81C208.392 115.81 211.847 115.315 215.168 114.325C218.488 113.336 221.585 111.941 224.457 110.141C227.418 108.252 230.021 106.002 232.265 103.392C234.598 100.693 288.958 31.5426 290.394 28.3032L317.319 55.4336C313.908 60.2927 257.484 130.838 252.997 134.707C248.599 138.576 243.797 141.861 238.592 144.56C233.476 147.26 228.047 149.285 222.303 150.634C216.648 152.074 210.815 152.794 204.802 152.794C194.66 152.794 185.102 150.904 176.127 147.125C167.242 143.346 159.434 138.081 152.703 131.333C146.061 124.584 140.811 116.575 136.952 107.307C133.093 97.9483 131.163 87.69 131.163 76.5319C131.163 65.1039 133.093 54.6657 136.952 45.2173C140.811 35.7689 146.061 27.7153 152.703 21.0564C159.434 14.3975 167.242 9.22342 176.127 5.53406C185.102 1.84468 194.66 0 204.802 0C210.815 0 216.693 0.719877 222.437 2.15963C228.181 3.59939 233.611 5.66903 238.727 8.36857C243.932 11.0681 248.778 14.3975 253.266 18.3569C257.753 22.2262 261.702 26.5905 265.113 31.4496L196.186 114.73ZM215.033 38.7384C213.328 38.1085 211.623 37.7036 209.917 37.5236C208.302 37.3436 206.597 37.2536 204.802 37.2536C199.776 37.2536 195.019 38.1985 190.532 40.0882C186.134 41.8878 182.275 44.4974 178.954 47.9168C175.723 51.3362 173.165 55.4755 171.281 60.3347C169.396 65.1039 168.453 70.503 168.453 76.5319C168.453 77.8817 168.498 79.4114 168.588 81.1212C168.768 82.8309 168.992 84.5856 169.261 86.3853C169.62 88.095 170.024 89.7597 170.473 91.3794C170.922 92.9991 171.505 94.4389 172.223 95.6987L215.033 38.7384Z" fill="white"/>
<path d="M339.963 114.73C341.399 115.18 342.835 115.495 344.271 115.675C345.707 115.765 347.143 115.81 348.579 115.81C352.169 115.81 355.624 115.315 358.945 114.325C362.266 113.336 365.362 111.941 368.234 110.141C371.195 108.252 373.798 106.002 376.042 103.392C378.375 100.693 380.26 97.7233 381.696 94.4839L408.621 121.614C405.21 126.473 401.261 130.838 396.774 134.707C392.376 138.576 387.575 141.861 382.369 144.56C377.254 147.26 371.824 149.285 366.08 150.634C360.426 152.074 354.592 152.794 348.579 152.794C338.437 152.794 328.879 150.904 319.904 147.125C311.019 143.346 303.211 138.081 296.48 131.333C289.838 124.584 284.588 116.575 280.729 107.307C276.87 97.9483 274.94 87.69 274.94 76.5319C274.94 65.1039 276.87 54.6657 280.729 45.2173C284.588 35.7689 289.838 27.7153 296.48 21.0564C303.211 14.3975 311.019 9.22342 319.904 5.53406C328.879 1.84468 338.437 0 348.579 0C354.592 0 360.471 0.719877 366.214 2.15963C371.958 3.59939 377.388 5.66903 382.504 8.36857C387.709 11.0681 392.556 14.3975 397.043 18.3569C401.531 22.2262 405.479 26.5905 408.89 31.4496L339.963 114.73ZM358.81 38.7384C357.105 38.1085 355.4 37.7036 353.695 37.5236C352.079 37.3436 350.374 37.2536 348.579 37.2536C343.553 37.2536 338.796 38.1985 334.309 40.0882C329.911 41.8878 326.052 44.4974 322.731 47.9168C319.5 51.3362 316.943 55.4755 315.058 60.3347C313.173 65.1039 312.231 70.503 312.231 76.5319C312.231 77.8817 312.276 79.4114 312.365 81.1212C312.545 82.8309 312.769 84.5856 313.038 86.3853C313.397 88.095 313.801 89.7597 314.25 91.3794C314.699 92.9991 315.282 94.4389 316 95.6987L358.81 38.7384Z" fill="white"/>
<path d="M466.508 150.094L411.582 5.53406H453.45L484.952 95.6987L516.319 5.53406H558.321L503.395 150.094H466.508Z" fill="white"/>
<path d="M707.349 76.5319C707.349 87.3301 705.419 97.4084 701.56 106.767C697.701 116.035 692.451 124.089 685.809 130.928C679.168 137.676 671.36 143.031 662.385 146.99C653.5 150.859 643.941 152.794 633.71 152.794C623.568 152.794 614.01 150.859 605.035 146.99C596.15 143.031 588.342 137.676 581.611 130.928C574.97 124.089 569.719 116.035 565.86 106.767C562.001 97.4084 560.071 87.3301 560.071 76.5319C560.071 65.5538 562.001 55.3855 565.86 46.0271C569.719 36.6687 574.97 28.6151 581.611 21.8663C588.342 15.0274 596.15 9.67335 605.035 5.80401C614.01 1.93467 623.568 0 633.71 0C643.941 0 653.5 1.84468 662.385 5.53406C671.36 9.13344 679.168 14.3076 685.809 21.0564C692.451 27.7153 697.701 35.7689 701.56 45.2173C705.419 54.5757 707.349 65.0139 707.349 76.5319ZM670.327 76.5319C670.327 70.5929 669.34 65.2389 667.366 60.4697C665.481 55.6105 662.878 51.4712 659.558 48.0518C656.237 44.5424 652.333 41.8878 647.845 40.0882C643.448 38.1985 638.736 37.2536 633.71 37.2536C628.684 37.2536 623.927 38.1985 619.44 40.0882C615.042 41.8878 611.183 44.5424 607.862 48.0518C604.631 51.4712 602.074 55.6105 600.189 60.4697C598.304 65.2389 597.362 70.5929 597.362 76.5319C597.362 82.111 598.304 87.2851 600.189 92.0543C602.074 96.8235 604.631 100.963 607.862 104.472C611.183 107.982 615.042 110.771 619.44 112.841C623.927 114.82 628.684 115.81 633.71 115.81C638.736 115.81 643.448 114.865 647.845 112.976C652.333 111.086 656.237 108.431 659.558 105.012C662.878 101.593 665.481 97.4534 667.366 92.5942C669.34 87.735 670.327 82.3809 670.327 76.5319Z" fill="white"/>
</svg>
