<?xml version="1.0" standalone="no"?>
<!DOCTYPE svg PUBLIC "-//W3C//DTD SVG 20010904//EN"
 "http://www.w3.org/TR/2001/REC-SVG-20010904/DTD/svg10.dtd">
<svg version="1.0" xmlns="http://www.w3.org/2000/svg"
 width="1024.000000pt" height="1024.000000pt" viewBox="0 0 1024.000000 1024.000000"
 preserveAspectRatio="xMidYMid meet">
<metadata>
Created by potrace 1.14, written by Peter Selinger 2001-2017
</metadata>
<g transform="translate(0.000000,1024.000000) scale(0.100000,-0.100000)"
fill="#000000" stroke="none">
<path d="M6106 8988 l-1159 -1160 1159 -1159 1159 -1159 1160 1160 1160 1160
-1160 1159 -1160 1159 -1159 -1160z m1739 -1738 l-580 -580 -579 579 -579 579
579 581 579 580 580 -580 580 -579 -580 -580z"/>
<path d="M1856 6284 l-1546 -1546 1546 -1546 1545 -1546 1547 1547 1546 1546
-1546 1545 -1546 1546 -1546 -1546z m2511 -2512 l-967 -967 -966 966 -965 965
966 967 967 967 966 -966 965 -966 -966 -966z"/>
<path d="M6298 2998 c-527 -528 -958 -963 -958 -966 0 -4 433 -440 963 -970
l962 -962 960 960 c528 528 961 964 963 969 4 11 -1913 1932 -1925 1930 -5 -1
-439 -433 -965 -961z m1354 -1350 l-387 -388 -382 382 c-211 211 -383 386
-383 390 0 4 172 180 383 391 l382 383 387 -386 387 -385 -387 -387z"/>
</g>
</svg>
